<svg xmlns="http://www.w3.org/2000/svg" width="560" height="314" viewBox="0 0 560 314" role="img" aria-label="Language">
<defs>
<linearGradient id="titleBar" x1="0" y1="0" x2="1" y2="0"><stop offset="0%" stop-color="#fab387"/><stop offset="50%" stop-color="#cba6f7"/><stop offset="100%" stop-color="#89b4fa"/></linearGradient>
<filter id="glow" x="-20%" y="-20%" width="140%" height="140%"><feGaussianBlur stdDeviation="1.2" result="blur"/><feMerge><feMergeNode in="blur"/><feMergeNode in="SourceGraphic"/></feMerge></filter>
</defs>
<rect width="100%" height="100%" rx="18" fill="#1e1e2e" stroke="#313244" stroke-width="1"/>
<rect x="20" y="18" width="4" height="22" rx="2" fill="url(#titleBar)"/>
<text x="34" y="36" fill="#cdd6f4" font-size="18" font-weight="700" font-family="ui-sans-serif, system-ui, Segoe UI, sans-serif">Language</text>
<text x="536" y="36" fill="#a6adc8" font-size="12" font-family="ui-monospace, SFMono-Regular, Menlo, Consolas, monospace" text-anchor="end">393 solved</text>
<path d="M 152.74 84.04 A 98 98 0 1 1 94.38 101.31 L 114.81 130.95 A 62 62 0 1 0 151.73 120.02 Z" fill="#fab387" filter="url(#glow)"/>
<path d="M 98.97 98.33 A 98 98 0 0 1 134.79 85.19 L 140.38 120.75 A 62 62 0 0 0 117.72 129.07 Z" fill="#a6e3a1" filter="url(#glow)"/>
<path d="M 140.22 84.49 A 98 98 0 0 1 145.70 84.09 L 147.28 120.06 A 62 62 0 0 0 143.81 120.31 Z" fill="#89b4fa" filter="url(#glow)"/>
<path d="M 151.17 84.01 A 98 98 0 0 1 151.85 84.02 L 151.17 120.01 A 62 62 0 0 0 150.74 120.00 Z" fill="#f9e2af" filter="url(#glow)"/>
<circle cx="150" cy="182.0" r="60" fill="#1e1e2e"/>
<text x="150" y="178.0" fill="#cdd6f4" font-size="28" font-weight="700" font-family="ui-monospace, SFMono-Regular, Menlo, Consolas, monospace" text-anchor="middle">393</text>
<text x="150" y="200.0" fill="#a6adc8" font-size="11" font-family="ui-sans-serif, system-ui, Segoe UI, sans-serif" text-anchor="middle">solved</text>
<rect x="292" y="78" width="236" height="44" rx="12" fill="#181825" stroke="#313244"/>
<rect x="306" y="94" width="12" height="12" rx="4" fill="#fab387"/>
<text x="328" y="98" fill="#cdd6f4" font-size="14" font-weight="600" font-family="ui-sans-serif, system-ui, Segoe UI, sans-serif">C++</text>
<text x="328" y="113" fill="#a6adc8" font-size="12" font-family="ui-monospace, SFMono-Regular, Menlo, Consolas, monospace">357  ·  91%</text>
<rect x="292" y="130" width="236" height="44" rx="12" fill="#181825" stroke="#313244"/>
<rect x="306" y="146" width="12" height="12" rx="4" fill="#a6e3a1"/>
<text x="328" y="150" fill="#cdd6f4" font-size="14" font-weight="600" font-family="ui-sans-serif, system-ui, Segoe UI, sans-serif">Python</text>
<text x="328" y="165" fill="#a6adc8" font-size="12" font-family="ui-monospace, SFMono-Regular, Menlo, Consolas, monospace">28  ·  7%</text>
<rect x="292" y="182" width="236" height="44" rx="12" fill="#181825" stroke="#313244"/>
<rect x="306" y="198" width="12" height="12" rx="4" fill="#89b4fa"/>
<text x="328" y="202" fill="#cdd6f4" font-size="14" font-weight="600" font-family="ui-sans-serif, system-ui, Segoe UI, sans-serif">SQL</text>
<text x="328" y="217" fill="#a6adc8" font-size="12" font-family="ui-monospace, SFMono-Regular, Menlo, Consolas, monospace">7  ·  2%</text>
<rect x="292" y="234" width="236" height="44" rx="12" fill="#181825" stroke="#313244"/>
<rect x="306" y="250" width="12" height="12" rx="4" fill="#f9e2af"/>
<text x="328" y="254" fill="#cdd6f4" font-size="14" font-weight="600" font-family="ui-sans-serif, system-ui, Segoe UI, sans-serif">JavaScript</text>
<text x="328" y="269" fill="#a6adc8" font-size="12" font-family="ui-monospace, SFMono-Regular, Menlo, Consolas, monospace">1  ·  0%</text>
</svg>
